<svg width="9" height="9" viewBox="0 0 9 9" fill="none" xmlns="http://www.w3.org/2000/svg">
<path d="M1.54704 0L1.09446 0.47584L1.76786 1.18452L2.21979 0.708683L1.54671 0H1.54704ZM7.45329 0L6.77989 0.708683L7.23214 1.18452L7.90521 0.476178L7.45296 0H7.45329ZM4.5 0.211183C4.39393 0.212537 4.28657 0.218967 4.17857 0.232843C4.17536 0.232843 4.17214 0.232166 4.16893 0.232843C2.86521 0.390216 1.82764 1.49927 1.64732 2.86587C1.50332 3.96578 1.93404 4.96315 2.65179 5.6055C2.94538 5.86932 3.14397 6.23135 3.21429 6.63096V8.66157H3.94714C4.059 8.86361 4.26311 9 4.5 9C4.73689 9 4.941 8.86361 5.05286 8.66157H5.78571V7.30783H5.81593V6.90577C5.81593 6.40962 6.06086 5.90941 6.45879 5.52055C6.99107 4.95943 7.39286 4.16241 7.39286 3.24694C7.39286 1.57508 6.08593 0.195615 4.5 0.211183ZM4.5 0.888053C5.74232 0.869778 6.75 1.94059 6.75 3.24694C6.75 3.95563 6.43821 4.5797 6.00654 5.03388L6.01682 5.04471C5.58783 5.46122 5.31044 6.02238 5.23254 6.63129H3.82661C3.75589 6.05122 3.51964 5.48975 3.07318 5.08702C2.50521 4.57936 2.16675 3.8145 2.27989 2.95081C2.42036 1.88474 3.24193 1.02749 4.24864 0.910052C4.33176 0.89785 4.41546 0.890619 4.49936 0.888392L4.5 0.888053ZM0 3.24694V3.92381H0.964286V3.24694H0ZM8.03571 3.24694V3.92381H9V3.24694H8.03571ZM1.76786 5.98624L1.09479 6.69458L1.54704 7.17076L2.21946 6.46208L1.76786 5.98624ZM7.23214 5.98624L6.78021 6.46208L7.45296 7.17076L7.90521 6.69458L7.23214 5.98624ZM3.85714 7.30816H5.14286V7.98503H3.85714V7.30816Z" fill="#212121"/>
</svg>
